<svg width="43" height="54" viewBox="0 0 43 54" fill="none" xmlns="http://www.w3.org/2000/svg">
<path d="M13.1109 7.55664H7.55546C6.08206 7.55664 4.66901 8.14195 3.62716 9.1838C2.58531 10.2256 2 11.6387 2 13.1121V46.4449C2 47.9182 2.58531 49.3313 3.62716 50.3732C4.66901 51.415 6.08206 52.0003 7.55546 52.0003H35.3328C36.8062 52.0003 38.2192 51.415 39.2611 50.3732C40.3029 49.3313 40.8882 47.9182 40.8882 46.4449V13.1121C40.8882 11.6387 40.3029 10.2256 39.2611 9.1838C38.2192 8.14195 36.8062 7.55664 35.3328 7.55664H29.7773" stroke="#203320" stroke-width="4" stroke-linecap="round" stroke-linejoin="round"/>
<path d="M24.2222 2H18.6668C15.5986 2 13.1113 4.48726 13.1113 7.55546C13.1113 10.6237 15.5986 13.1109 18.6668 13.1109H24.2222C27.2904 13.1109 29.7777 10.6237 29.7777 7.55546C29.7777 4.48726 27.2904 2 24.2222 2Z" stroke="#203320" stroke-width="4" stroke-linecap="round" stroke-linejoin="round"/>
<path d="M13.1113 32.5566H13.1391M13.1113 40.8898H13.1391M21.4445 38.1121L24.2222 40.8898L32.5554 32.5566" stroke="#203320" stroke-width="4" stroke-linecap="round" stroke-linejoin="round"/>
</svg>
