<svg width="50" height="50" viewBox="0 0 50 50" fill="none" xmlns="http://www.w3.org/2000/svg">
<path d="M35.7143 39.2857H14.2857C13.3385 39.2857 12.4301 38.9094 11.7603 38.2397C11.0906 37.5699 10.7143 36.6615 10.7143 35.7143V30.3571H14.2857V35.7143H35.7143V30.3571H39.2857V35.7143C39.2857 36.6615 38.9094 37.5699 38.2397 38.2397C37.5699 38.9094 36.6615 39.2857 35.7143 39.2857ZM0 23.2143H50V26.7857H0V23.2143ZM39.2857 19.6429H35.7143V14.2857H14.2857V19.6429H10.7143V14.2857C10.7143 13.3385 11.0906 12.4301 11.7603 11.7603C12.4301 11.0906 13.3385 10.7143 14.2857 10.7143H35.7143C36.6615 10.7143 37.5699 11.0906 38.2397 11.7603C38.9094 12.4301 39.2857 13.3385 39.2857 14.2857V19.6429ZM50 14.2857H46.4286V3.57143H35.7143V0H50V14.2857ZM3.57143 14.2857H0V0H14.2857V3.57143H3.57143V14.2857ZM14.2857 50H0V35.7143H3.57143V46.4286H14.2857V50ZM50 50H35.7143V46.4286H46.4286V35.7143H50V50Z" fill="#203320"/>
</svg>
